<svg width="386" height="386" class="svg-graph" xmlns="http://www.w3.org/2000/svg">

        <rect width="386" height="386" style="fill: white; stroke: black; stroke-width: 8px"></rect>

        <line x1="193" y1="0" x2="193" y2="386" style="stroke: black; stroke-width: 3px"></line>
        <line x1="0" y1="193" x2="386" y2="193" style="stroke: black; stroke-width: 3px"></line>
        <polygon points="367 193 367 183 367 203" style="fill: black"></polygon>
        <polygon points="193 3 186 20 203 20" style="fill: black"></polygon>

        <line x1="286" y1="198" x2="263" y2="188" style="stroke: black; stroke-width: 2px"></line>
        <line x1="333" y1="198" x2="333" y2="188" style="stroke: black; stroke-width: 2px"></line>
        <line x1="123" y1="198" x2="123" y2="188" style="stroke: black; stroke-width: 2px"></line>
        <line x1="53" y1="198" x2="53" y2="188" style="stroke: black; stroke-width: 2px"></line>
        <line x1="198" y1="263" x2="188" y2="263" style="stroke: black; stroke-width: 2px"></line>
        <line x1="198" y1="333" x2="188" y2="333" style="stroke: black; stroke-width: 2px"></line>
        <line x1="198" y1="123" x2="188" y2="123" style="stroke: black; stroke-width: 2px"></line>
        <line x1="198" y1="53" x2="188" y2="53" style="stroke: black; stroke-width: 2px"></line>

        <text class="axis" x="367" y="177">X</text>
        <text class="axis" x="204" y="19">Y</text>
        <text x="204" y="58">R</text>
        <text x="204" y="128">R/2</text>
        <text x="204" y="268">-R/2</text>
        <text x="204" y="338">-R</text>
        <text x="328" y="177">R</text>
        <text x="250" y="177">R/2</text>
        <text x="105" y="177">-R/2</text>
        <text x="42" y="177">-R</text>

        <rect class="shape" x="193" y="193" width="150" height="75"></rect>
        <polygon class="shape" points="193 193 123 193 193 123"></polygon>
        <path class="shape" d="M 193 123 A 70 70 0 0 1 263 193 L 193 193 Z"></path>
</svg>